inDegrees=no
num_controls=7
num_derivatives=13
num_iterations=104
num_multipliers=7
num_parameters=0
num_slacks=7
num_states=26
objective=0.446942
objective_accelerations=0.053381
objective_balance=0.002852
objective_effort=0.020095
objective_height=0.365194
objective_ligament=0.005420
solver_duration=1420.415902
status=Solve_Succeeded
success=true
DataType=double
version=3
OpenSimVersion=4.5
endheader
time	/jointset/ground_pelvis/pelvis_tilt/value	/jointset/ground_pelvis/pelvis_tx/value	/jointset/ground_pelvis/pelvis_ty/value	/jointset/hip_l/hip_flexion_l/value	/jointset/hip_l/hip_adduction_l/value	/jointset/hip_l/hip_rotation_l/value	/jointset/back/lumbar_extension/value	/jointset/patellofemoral_l/patellar_flexion_l/value	/jointset/knee_l/knee_flexion_l/value	/jointset/knee_l/knee_adduction_l/value	/jointset/knee_l/knee_rotation_l/value	/jointset/ankle_l/ankle_angle_l/value	/jointset/subtalar_l/subtalar_angle_l/value	/jointset/ground_pelvis/pelvis_tilt/speed	/jointset/ground_pelvis/pelvis_tx/speed	/jointset/ground_pelvis/pelvis_ty/speed	/jointset/hip_l/hip_flexion_l/speed	/jointset/hip_l/hip_adduction_l/speed	/jointset/hip_l/hip_rotation_l/speed	/jointset/back/lumbar_extension/speed	/jointset/patellofemoral_l/patellar_flexion_l/speed	/jointset/knee_l/knee_flexion_l/speed	/jointset/knee_l/knee_adduction_l/speed	/jointset/knee_l/knee_rotation_l/speed	/jointset/ankle_l/ankle_angle_l/speed	/jointset/subtalar_l/subtalar_angle_l/speed	/forceset/tau_hip_flexion_l	/forceset/tau_hip_adduction_l	/forceset/tau_hip_rotation_l	/forceset/tau_knee_flexion_l	/forceset/tau_ankle_angle_l	/forceset/tau_subtalar_angle_l	/forceset/tau_lumbar_extension	lambda_cid13_p0	lambda_cid13_p1	lambda_cid13_p2	lambda_cid13_p3	lambda_cid13_p4	lambda_cid13_p5	lambda_cid14_p0	/jointset/ground_pelvis/pelvis_tilt/accel	/jointset/ground_pelvis/pelvis_tx/accel	/jointset/ground_pelvis/pelvis_ty/accel	/jointset/hip_l/hip_flexion_l/accel	/jointset/hip_l/hip_adduction_l/accel	/jointset/hip_l/hip_rotation_l/accel	/jointset/back/lumbar_extension/accel	/jointset/patellofemoral_l/patellar_flexion_l/accel	/jointset/knee_l/knee_flexion_l/accel	/jointset/knee_l/knee_adduction_l/accel	/jointset/knee_l/knee_rotation_l/accel	/jointset/ankle_l/ankle_angle_l/accel	/jointset/subtalar_l/subtalar_angle_l/accel	gamma_cid13_p0	gamma_cid13_p1	gamma_cid13_p2	gamma_cid13_p3	gamma_cid13_p4	gamma_cid13_p5	gamma_cid14_p0
0.5	-0.2307242208961448	0.01981022196221973	0.7744038405357653	0.9237949180199253	-0.4446717989172281	-0.2244124356887156	-0.2509021386463895	0.8521765630656273	0.8521765630656584	-0.1146873888565794	-0.1624249505908057	0.2225371990873589	0.02453597590130798	-0.4894827149834083	-0.08008635200596313	-0.4883719712107617	2.012150315534522	-0.2342571352990094	0.7585910525040538	-0.1360889631712485	2.104326427359458	2.104326427359667	0.1592693621762675	-0.07163773923891475	0.7679642773968498	0.1631888279246097	-0.1194000217103829	0.0253046529676222	-0.01327440302969275	-0.2399605516154209	0.0108004279908003	0.03653709695834263	0.1342728205946586	-28.66910335932803	-14.93210584624556	6.709347103936846	-1.442290484332606	-522.8458664421597	-68.67995722409069	-23.06697559858234	0.4424018175489631	0.391882898046953	-0.4797097739987002	-1.019117042744577	0.6637185037403207	-0.305457889308077	0.990865651337753	-1.39664807502013	-1.396648075020136	0.05183687454909761	0.1527043144912727	-0.6393032396240981	0.5510513015858854	-5.865673654048674e-07	-5.022495656481688e-08	3.599590256298898e-06	2.469167482403154e-07	-6.961661752324769e-07	-6.087188178727342e-07	-4.532692732799341e-07
0.51	-0.2355957549261422	0.01902902104320556	0.7694972282078493	0.943861557901342	-0.4469821419187295	-0.2168394868039973	-0.2522142038143605	0.8731466136380152	0.8731466136380085	-0.1130969045916212	-0.1631325067456467	0.2301832857878715	0.02619334441122084	-0.4847579369576622	-0.07615196082048532	-0.4928428227834092	2.00089913768641	-0.2277987051828843	0.7558974815863878	-0.1263424518262634	2.089396330729028	2.089396330729127	0.1588184407036337	-0.06987012849797671	0.7611396487547546	0.1682509673439494	-0.123382503280288	0.02669541852825924	-0.01317264906139657	-0.2431943603114694	0.008240140974879989	0.03639569936617242	0.1374557697695915	-29.65760360277927	-14.65590947919829	6.617671791712049	-1.00867155093016	-526.0808131937476	-68.33921264641558	-22.07860909733855	0.4973598221840122	0.394550155864865	-0.4147597392928384	-1.219989489377965	0.6383025279477722	-0.2669108778331342	0.9637866655775312	-1.584204345036318	-1.584204345052849	-0.09479011535336369	0.1899877014922391	-0.7210445222578836	0.4782836724812931	-5.588039973655097e-07	9.204527901314121e-08	3.621097796893474e-06	2.782749040722787e-07	-6.814345554087312e-07	-4.793569671999095e-07	-4.409664725965075e-07
0.52	-0.2404180723704626	0.01828723062145949	0.7645491099861277	0.9638073117375708	-0.4492276211665897	-0.2092965944654234	-0.2534293553109819	0.8939587604665018	0.8939587604664571	-0.1115111762328259	-0.1638221471435597	0.237757725832812	0.02790023199740176	-0.4796393978480528	-0.07220425255234174	-0.4966731499718579	1.987973106496962	-0.2212843845707925	0.7525797432752309	-0.1167062289013322	2.072745678579319	2.072745678579308	0.1583181809436501	-0.06805458785315188	0.753634946282433	0.1730926431782206	-0.1273649848501947	0.02808618408889594	-0.01307089509308978	-0.2464281690075185	0.00567985395895969	0.03625430177400158	0.1406387189445231	-30.64782108199162	-14.37762825583684	6.523628740124822	-0.6142967027419234	-529.3624686463177	-68.05745362149248	-21.09650850199363	0.5211540343216411	0.3945463145801085	-0.3516048971589194	-1.354087711011595	0.6748966029336694	-0.430291368006246	0.9688079673269627	-1.740759178875975	-1.740759178875978	0.04196921707914851	0.1622902952686298	-0.775318005669389	0.5069585845722036	-5.285071837885406e-07	2.436159065454706e-07	3.640936799151872e-06	3.123629851920223e-07	-6.678792224138133e-07	-3.427868683003519e-07	-4.270551578895722e-07
0.53	-0.2451873292823854	0.01758495215313332	0.7595659240561199	0.9836156626152717	-0.4514076444764286	-0.2017895631142037	-0.2545487318363651	0.9145960188965384	0.9145960188965068	-0.1099308386656516	-0.1644931606493136	0.245253873814837	0.02965452822720822	-0.4741480439853622	-0.06825196592933039	-0.4998530031264112	1.97342563180691	-0.2147141528719924	0.7487285937609227	-0.1071971121657688	2.054436264090097	2.05443626409018	0.1577380025842815	-0.06614663658145117	0.7454930183220109	0.1777294812731967	-0.1312348549483549	0.02923563770347848	-0.01288850457027966	-0.2498685884655487	0.003296516824696118	0.03602959626286866	0.143715649759794	-31.58842301949533	-14.0622651516666	6.412718732728896	-0.2042635686706692	-532.6788916015441	-67.76453016215713	-20.12549279870403	0.5726381530341972	0.3955571672659032	-0.2846527409603646	-1.545886016174503	0.6484566536606944	-0.3776050788705089	0.937758128097553	-1.916410134983783	-1.916410134969501	-0.1095612367481552	0.2059783323670844	-0.84884625729686	0.4359980774819336	-4.92410682824871e-07	3.762573360831067e-07	3.609876718528003e-06	3.387322823508466e-07	-6.461933582407922e-07	-2.060025210025533e-07	-4.092850426858624e-07
0.54	-0.2498997702375229	0.01692219401725812	0.7545542441512952	1.003270377012437	-0.4535218914292179	-0.1943240589252728	-0.2555738582741074	0.9350421076714748	0.9350421076714578	-0.1083566128569317	-0.1651449084845019	0.2526655593040442	0.03145398316906878	-0.4682762064910141	-0.06430018606214978	-0.5023719449352364	1.957245810389957	-0.2081291131608913	0.7442743108175183	-0.09785621137314407	2.03451174755934	2.03451174755952	0.1570958292527812	-0.06420145373989868	0.7367424477188597	0.1821243855890375	-0.1351047250465166	0.03038509131806023	-0.01270611404745605	-0.2533090079235795	0.0009131796904323673	0.03580489075173437	0.1467925805750637	-32.52992587654793	-13.74458297400628	6.298972901860151	0.1647168468927989	-536.0263206058288	-67.52503799722768	-19.16811080140236	0.5972507606531513	0.3944449634139597	-0.2194226280132997	-1.680557056391831	0.677858205393888	-0.5509180538254823	0.9351647787392284	-2.063779587182661	-2.063779587182603	0.02957022265281485	0.1697366092389872	-0.8970465342151751	0.4585718287451424	-4.498975064546393e-07	4.879558231585288e-07	3.52250275897056e-06	3.565616483188667e-07	-6.155120127643376e-07	-6.898113292372231e-08	-3.872456162942319e-07
0.55	-0.2545516990591207	0.01629886452073305	0.7495207078117894	1.022755421572701	-0.4555701102993949	-0.1869059709520461	-0.256506497720593	0.9552810234211506	0.9552810234211386	-0.1067889875909017	-0.1657769125902273	0.2599867446370865	0.03329630005389708	-0.4620482165006845	-0.0603741187789427	-0.5042209649605633	1.939501724924672	-0.2015121362002242	0.7392457439199031	-0.08871564196003651	2.013009074704057	2.013009074704122	0.1564168105909702	-0.06219813480680933	0.7273920674617464	0.1862939865618709	-0.1389242107943168	0.03153243192986319	-0.01243149869850236	-0.2567611836286351	-0.001591379119003036	0.03543567961404758	0.1497882606711747	-33.52116884931496	-13.33863123292588	6.151960370555184	0.6832004369335491	-539.4022838527015	-67.18149603319709	-18.22635992778743	0.6447010479729771	0.3905000377161356	-0.1506077443349751	-1.860627535840171	0.653456577468016	-0.4937995338528546	0.8969084171830702	-2.23278524064582	-2.232785240663073	-0.118343259406828	0.2164985241027681	-0.9693734867114675	0.3889071369779717	-4.032150777610089e-07	6.119714379582868e-07	3.426471878532167e-06	3.751778623351587e-07	-5.81373306937659e-07	7.296265759986728e-08	-3.624032456832167e-07
0.5600000000000001	-0.2591395223948652	0.01571455818242845	0.7444720880611219	1.042055166629464	-0.4575521915727521	-0.1795411633530205	-0.2573490503940302	0.9752970576210848	0.9752970576210765	-0.1052284935812516	-0.1663887097088699	0.2672113582245073	0.03517886352953884	-0.4554551093203501	-0.05649555441805473	-0.5053886271675927	1.920185909689654	-0.1949015937969615	0.7336182359773556	-0.07983885676346657	1.989935437610987	1.989935437610937	0.1556695779768088	-0.06016005632336571	0.7174280985945504	0.190173703751726	-0.1427436965421181	0.03267977254166577	-0.01215688334955207	-0.2602133593336906	-0.004095937928438377	0.03506646847636036	0.1527839407672848	-34.51342273156212	-12.92908700486875	6.000476353202488	1.164991840223388	-542.8038771057085	-66.88467149856135	-17.3017684568631	0.6702741986541204	0.3849443789501367	-0.08315106435382058	-1.994903010338456	0.676571293913	-0.6707062628119099	0.8824079354317016	-2.377972434740003	-2.377972434740002	0.01592743218276248	0.1766885193098401	-1.019764256231743	0.4005950721495072	-3.515295462793005e-07	7.507676060272472e-07	3.320052693036632e-06	3.947382940093769e-07	-5.430857686907116e-07	2.20813331057167e-07	-3.341973420089398e-07
